<?xml version="1.0" encoding="utf-8"?>
<!-- Generator: Adobe Illustrator 24.2.1, SVG Export Plug-In . SVG Version: 6.00 Build 0)  -->
<svg version="1.1" xmlns="http://www.w3.org/2000/svg" xmlns:xlink="http://www.w3.org/1999/xlink" x="0px" y="0px"
	 viewBox="0 0 709.5 558.6" style="enable-background:new 0 0 709.5 558.6;" xml:space="preserve">
<style type="text/css">
	.st0{fill:#E6E6E6;}
	.st1{fill:#FFFFFF;}
	.st2{fill:#6C63FF;}
	.st3{display:none;}
	.st4{display:inline;fill:#E6E6E6;}
	.st5{display:inline;fill:#6C63FF;}
	.st6{fill:#2F2E41;}
	.st7{fill:#FFB8B8;}
	.st8{fill:none;}
	.st9{fill:#0077D3;}
	.st10{fill:#0A2767;}
	.st11{fill:#0364B8;}
	.st12{fill:#0078D4;}
	.st13{fill:#28A8EA;}
	.st14{fill:#14447D;}
	.st15{fill:url(#SVGID_1_);}
	.st16{opacity:0.5;fill:#0A2767;enable-background:new    ;}
	.st17{fill:#1490DF;}
	.st18{opacity:0.1;enable-background:new    ;}
	.st19{opacity:5.000000e-02;enable-background:new    ;}
	.st20{opacity:0.2;enable-background:new    ;}
	.st21{fill:url(#SVGID_2_);}
	.st22{fill:#50D9FF;}
	.st23{fill:#3F3D56;}
	.st24{opacity:0.3;enable-background:new    ;}
	.st25{fill:#CCCCCC;}
</style>
<g id="Capa_2">
</g>
<g id="Capa_1">
	<rect x="0.3" y="0.4" class="st0" width="643.9" height="412.4"/>
	<rect x="18.7" y="52.1" class="st1" width="607" height="336.2"/>
	<rect class="st2" width="643.9" height="27.4"/>
	<circle class="st1" cx="20.3" cy="14" r="5.1"/>
	<circle class="st1" cx="39.6" cy="14" r="5.1"/>
	<circle class="st1" cx="58.8" cy="14" r="5.1"/>
	<g class="st3">
		<rect x="73.8" y="87" class="st4" width="156" height="266.5"/>
		<rect x="256.7" y="87" class="st5" width="130" height="73.3"/>
		<rect x="256.7" y="180.7" class="st4" width="130" height="78.9"/>
		<rect x="256.7" y="280.1" class="st4" width="130" height="73.3"/>
		<rect x="414.6" y="87" class="st4" width="156" height="116.1"/>
		<rect x="414.6" y="237.3" class="st4" width="156" height="116.1"/>
	</g>
	<path class="st6" d="M510.5,211.4v-25c0-18.5,15-33.5,33.5-33.5s33.5,15,33.5,33.5l0,0v25c0,2.5-2,4.5-4.5,4.5h-58
		C512.5,215.9,510.5,213.9,510.5,211.4z"/>
	<polygon class="st7" points="593.5,536.8 581.7,540.1 563.5,496 580.9,491.2 	"/>
	<path class="st6" d="M572.3,539l22.8-6.3l0,0l4,14.3l0,0l-37.1,10.3l0,0l0,0C559.8,549.4,564.4,541.2,572.3,539z"/>
	<polygon class="st7" points="470.3,545.9 458.1,545.9 452.2,498.6 470.3,498.6 	"/>
	<path class="st6" d="M449.3,542.4H473l0,0v14.9l0,0h-38.5l0,0l0,0C434.4,549,441.1,542.4,449.3,542.4z"/>
	<path class="st7" d="M455.5,281.6c3.3,4.5,9.6,5.4,14.1,2.1c0.5-0.4,0.9-0.7,1.3-1.2l32.6,14.7l-3-18.3l-30.5-11.1
		c-4.3-3.6-10.7-2.9-14.2,1.4C452.9,272.7,452.7,277.9,455.5,281.6L455.5,281.6z"/>
	<path class="st6" d="M523.3,391.8c-10.2,0-20.8-1.5-29.7-6.1c-9.6-4.8-16.7-13.3-19.7-23.6c-4.6-14.7,1.2-29.1,6.9-43.1
		c3.5-8.7,6.8-16.8,7.7-24.9l0.3-2.9c1.3-12.8,2.5-23.9,8.9-28.1c3.3-2.2,7.8-2.3,13.6-0.4l55,17.9l-2,104.5l-0.3,0.1
		C563.6,385.5,544.2,391.8,523.3,391.8z"/>
	<path class="st2" d="M510.2,230.3c0,0,27-8,48-5c0,0-12,66-8,88s-69.5,8.5-54.5-12.5l5-25c0,0-10-10-1-22L510.2,230.3z"/>
	<path class="st6" d="M496.9,389.9l-33.3-6.2l11.6-89.4c0.8-2.5,18.8-59.1,27-62.2c5.9-2.1,12-3.8,18.2-5l1.2-0.2l-6.7,10
		l-26.6,63.7L496.9,389.9z"/>
	<path class="st6" d="M479.6,534.9l-43-7.2l24.1-98.5l35.9-134.7l0.4,2.4c0,0.2,3.4,17.8,53.2,10l0.4-0.1l0.1,0.4l60.2,212.5
		l-49,8.2l-44.7-155.1L479.6,534.9z"/>
	<path class="st6" d="M539.2,406.6l0-0.8c0-0.8,3-84.4,2-118c-1-33.7,9.9-62.9,10-63.2l0.1-0.2l0.2-0.1c14.1-4,26.4,8,26.5,8.1
		l0.2,0.2l-4,33.2l17.2,120.6L539.2,406.6z"/>
	<circle class="st7" cx="537.1" cy="190.8" r="24.6"/>
	<path class="st6" d="M502.6,188.4c0-14.6,11.9-26.5,26.5-26.5h5c14.6,0,26.5,11.9,26.5,26.5v0.5H550l-3.6-10.1l-0.7,10.1h-5.5
		l-1.8-5.1l-0.4,5.1h-35.5V188.4z"/>
	<path class="st6" d="M534.7,218.8c-1-1.4-1.1-3.2-0.4-4.7c5.3-10.1,12.7-28.7,2.9-40.2l-0.7-0.8h28.6V216l-26,4.6
		c-0.3,0-0.5,0.1-0.8,0.1C536.9,220.6,535.5,219.9,534.7,218.8z"/>
	<g>
		<g>
			<rect x="65.1" y="345.8" class="st8" width="112" height="26.5"/>
			<path class="st9" d="M80.2,359.1h-2.1v-8.2c0-0.7,0-1.5,0.1-2.5h0c-0.1,0.6-0.2,0.9-0.3,1.2l-3.8,9.4h-1.4l-3.8-9.4
				c-0.1-0.3-0.2-0.7-0.3-1.3h0c0,0.5,0.1,1.3,0.1,2.5v8.1h-1.9v-12.6h2.9l3.3,8.4c0.3,0.6,0.4,1.1,0.5,1.4h0
				c0.2-0.7,0.4-1.2,0.5-1.5l3.4-8.4h2.8V359.1z"/>
			<path class="st9" d="M87,359.3c-1.4,0-2.5-0.4-3.3-1.3s-1.2-2-1.2-3.3c0-1.5,0.4-2.7,1.3-3.5s2-1.3,3.5-1.3
				c1.4,0,2.5,0.4,3.3,1.2s1.2,2,1.2,3.4c0,1.4-0.4,2.6-1.3,3.5C89.6,358.9,88.4,359.3,87,359.3z M87.1,351.5
				c-0.8,0-1.4,0.3-1.9,0.8s-0.7,1.3-0.7,2.3c0,0.9,0.2,1.7,0.7,2.2s1.1,0.8,1.9,0.8c0.8,0,1.4-0.3,1.8-0.8c0.4-0.5,0.6-1.3,0.6-2.3
				c0-1-0.2-1.8-0.6-2.3C88.5,351.8,87.9,351.5,87.1,351.5z"/>
			<path class="st9" d="M99,352c-0.2-0.2-0.6-0.3-1.1-0.3c-0.6,0-1.1,0.3-1.5,0.8s-0.6,1.3-0.6,2.2v4.3h-2v-9h2v1.9h0
				c0.2-0.6,0.5-1.1,0.9-1.5c0.4-0.4,0.9-0.5,1.4-0.5c0.4,0,0.7,0.1,0.8,0.2V352z"/>
			<path class="st9" d="M107.9,355.2h-6.1c0,0.8,0.3,1.5,0.8,1.9c0.5,0.5,1.2,0.7,2,0.7c1,0,1.8-0.3,2.6-0.9v1.6
				c-0.8,0.5-1.9,0.8-3.3,0.8c-1.3,0-2.4-0.4-3.1-1.2c-0.8-0.8-1.1-2-1.1-3.5c0-1.4,0.4-2.5,1.2-3.4s1.9-1.3,3.1-1.3
				s2.2,0.4,2.9,1.2s1,1.9,1,3.3V355.2z M105.9,353.7c0-0.7-0.2-1.3-0.5-1.7s-0.8-0.6-1.4-0.6c-0.6,0-1.1,0.2-1.5,0.6
				c-0.4,0.4-0.7,1-0.8,1.7H105.9z"/>
			<path class="st9" d="M123,359.1h-2v-1.5h0c-0.7,1.2-1.7,1.7-3,1.7c-1.1,0-2-0.4-2.7-1.2s-1-1.9-1-3.3c0-1.5,0.4-2.7,1.1-3.6
				s1.7-1.3,2.9-1.3c1.2,0,2.1,0.5,2.6,1.5h0v-5.6h2V359.1z M121,355v-1.2c0-0.6-0.2-1.2-0.6-1.6s-0.9-0.7-1.6-0.7
				c-0.8,0-1.4,0.3-1.8,0.9s-0.7,1.4-0.7,2.4c0,0.9,0.2,1.6,0.6,2.2c0.4,0.5,1,0.8,1.7,0.8c0.7,0,1.3-0.3,1.7-0.8S121,355.8,121,355
				z"/>
			<path class="st9" d="M133.3,355.2h-6.1c0,0.8,0.3,1.5,0.8,1.9c0.5,0.5,1.2,0.7,2,0.7c1,0,1.8-0.3,2.6-0.9v1.6
				c-0.8,0.5-1.9,0.8-3.3,0.8c-1.3,0-2.4-0.4-3.1-1.2c-0.8-0.8-1.1-2-1.1-3.5c0-1.4,0.4-2.5,1.2-3.4s1.9-1.3,3.1-1.3
				s2.2,0.4,2.9,1.2s1,1.9,1,3.3V355.2z M131.3,353.7c0-0.7-0.2-1.3-0.5-1.7s-0.8-0.6-1.4-0.6c-0.6,0-1.1,0.2-1.5,0.6
				c-0.4,0.4-0.7,1-0.8,1.7H131.3z"/>
			<path class="st9" d="M139.9,359c-0.4,0.2-0.9,0.3-1.6,0.3c-1.7,0-2.6-0.8-2.6-2.5v-5.1h-1.5v-1.6h1.5V348l2-0.6v2.7h2.2v1.6h-2.2
				v4.5c0,0.5,0.1,0.9,0.3,1.1s0.5,0.3,1,0.3c0.3,0,0.6-0.1,0.9-0.3V359z"/>
			<path class="st9" d="M148.6,359.1h-2v-1.4h0c-0.6,1.1-1.5,1.6-2.7,1.6c-0.9,0-1.6-0.2-2.1-0.7c-0.5-0.5-0.8-1.1-0.8-1.9
				c0-1.7,1-2.7,2.9-3l2.7-0.4c0-1.3-0.6-1.9-1.8-1.9c-1.1,0-2,0.4-2.9,1.1v-1.8c0.9-0.6,2-0.8,3.3-0.8c2.3,0,3.4,1.1,3.4,3.4V359.1
				z M146.6,354.7l-1.9,0.3c-0.6,0.1-1,0.2-1.3,0.4c-0.3,0.2-0.4,0.6-0.4,1.1c0,0.4,0.1,0.7,0.4,0.9c0.3,0.2,0.6,0.4,1.1,0.4
				c0.6,0,1.1-0.2,1.5-0.7c0.4-0.4,0.6-1,0.6-1.6V354.7z"/>
			<path class="st9" d="M152.1,348.2c-0.3,0-0.6-0.1-0.9-0.3c-0.2-0.2-0.4-0.5-0.4-0.8s0.1-0.6,0.4-0.8c0.2-0.2,0.5-0.3,0.9-0.3
				c0.3,0,0.6,0.1,0.9,0.3s0.4,0.5,0.4,0.8c0,0.3-0.1,0.6-0.4,0.8S152.5,348.2,152.1,348.2z M153.1,359.1h-2v-9h2V359.1z"/>
			<path class="st9" d="M157.8,359.1h-2v-13.3h2V359.1z"/>
			<path class="st9" d="M159.9,358.8v-1.9c0.8,0.6,1.6,0.9,2.5,0.9c1.2,0,1.8-0.4,1.8-1.1c0-0.2-0.1-0.4-0.2-0.5s-0.2-0.3-0.4-0.4
				c-0.2-0.1-0.4-0.2-0.6-0.3c-0.2-0.1-0.5-0.2-0.8-0.3c-0.4-0.1-0.7-0.3-1-0.5c-0.3-0.2-0.5-0.3-0.7-0.6c-0.2-0.2-0.3-0.4-0.4-0.7
				s-0.1-0.6-0.1-0.9c0-0.4,0.1-0.8,0.3-1.1s0.5-0.6,0.8-0.8s0.7-0.4,1.2-0.5s0.9-0.2,1.4-0.2c0.8,0,1.6,0.1,2.2,0.4v1.8
				c-0.6-0.4-1.4-0.7-2.2-0.7c-0.3,0-0.5,0-0.7,0.1s-0.4,0.1-0.5,0.2s-0.3,0.2-0.3,0.3s-0.1,0.3-0.1,0.4c0,0.2,0,0.4,0.1,0.5
				s0.2,0.3,0.4,0.4s0.4,0.2,0.6,0.3s0.5,0.2,0.8,0.3c0.4,0.2,0.7,0.3,1,0.5c0.3,0.2,0.6,0.4,0.8,0.6s0.4,0.4,0.5,0.7s0.2,0.6,0.2,1
				c0,0.5-0.1,0.9-0.3,1.2s-0.5,0.6-0.8,0.8s-0.8,0.4-1.2,0.5c-0.5,0.1-0.9,0.2-1.5,0.2C161.5,359.3,160.7,359.2,159.9,358.8z"/>
		</g>
		<g>
			<path class="st9" d="M240.7,329.4h-179c-2.2,0-4.1-1.8-4.1-4.1v-34.5c0-2.2,1.8-4.1,4.1-4.1h179c2.2,0,4.1,1.8,4.1,4.1v34.5
				C244.8,327.6,243,329.4,240.7,329.4z"/>
			<g>
				<rect x="83" y="301.6" class="st8" width="145" height="26.5"/>
				<path class="st1" d="M94.3,314.9h-2.4l-2-3.4c-0.2-0.3-0.4-0.6-0.5-0.8s-0.3-0.4-0.5-0.5s-0.4-0.2-0.6-0.3s-0.4-0.1-0.7-0.1
					h-0.8v5.1h-2.1v-12.6h4.1c0.6,0,1.1,0.1,1.6,0.2s0.9,0.4,1.3,0.6s0.7,0.6,0.9,1.1s0.3,0.9,0.3,1.5c0,0.4-0.1,0.9-0.2,1.2
					s-0.3,0.7-0.6,1s-0.5,0.5-0.9,0.7s-0.7,0.4-1.2,0.5v0c0.2,0.1,0.4,0.3,0.6,0.4s0.3,0.3,0.5,0.5s0.3,0.4,0.5,0.6s0.3,0.4,0.5,0.7
					L94.3,314.9z M86.6,304v4.1h1.7c0.3,0,0.6,0,0.9-0.1s0.5-0.2,0.7-0.4s0.4-0.4,0.5-0.7s0.2-0.6,0.2-0.9c0-0.6-0.2-1.1-0.6-1.4
					s-0.9-0.5-1.6-0.5H86.6z"/>
				<path class="st1" d="M102.6,311h-6.1c0,0.8,0.3,1.5,0.8,1.9c0.5,0.5,1.2,0.7,2,0.7c1,0,1.8-0.3,2.6-0.9v1.6
					c-0.8,0.5-1.9,0.8-3.3,0.8c-1.3,0-2.4-0.4-3.1-1.2c-0.8-0.8-1.1-2-1.1-3.5c0-1.4,0.4-2.5,1.2-3.4s1.9-1.3,3.1-1.3
					s2.2,0.4,2.9,1.2s1,1.9,1,3.3V311z M100.7,309.5c0-0.7-0.2-1.3-0.5-1.7s-0.8-0.6-1.4-0.6c-0.6,0-1.1,0.2-1.5,0.6
					c-0.4,0.4-0.7,1-0.8,1.7H100.7z"/>
				<path class="st1" d="M109.7,303.2c-0.3-0.2-0.6-0.2-0.9-0.2c-1,0-1.5,0.6-1.5,1.7v1.2h2.1v1.6h-2.1v7.4h-2v-7.4h-1.5v-1.6h1.5
					v-1.5c0-0.9,0.3-1.7,0.9-2.2s1.4-0.8,2.3-0.8c0.5,0,0.9,0.1,1.2,0.2V303.2z"/>
				<path class="st1" d="M116,307.9c-0.2-0.2-0.6-0.3-1.1-0.3c-0.6,0-1.1,0.3-1.5,0.8s-0.6,1.3-0.6,2.2v4.3h-2v-9h2v1.9h0
					c0.2-0.6,0.5-1.1,0.9-1.5c0.4-0.4,0.9-0.5,1.4-0.5c0.4,0,0.7,0.1,0.8,0.2V307.9z"/>
				<path class="st1" d="M124.9,311h-6.1c0,0.8,0.3,1.5,0.8,1.9c0.5,0.5,1.2,0.7,2,0.7c1,0,1.8-0.3,2.6-0.9v1.6
					c-0.8,0.5-1.9,0.8-3.3,0.8c-1.3,0-2.4-0.4-3.1-1.2c-0.8-0.8-1.1-2-1.1-3.5c0-1.4,0.4-2.5,1.2-3.4s1.9-1.3,3.1-1.3
					s2.2,0.4,2.9,1.2s1,1.9,1,3.3V311z M123,309.5c0-0.7-0.2-1.3-0.5-1.7s-0.8-0.6-1.4-0.6c-0.6,0-1.1,0.2-1.5,0.6
					c-0.4,0.4-0.7,1-0.8,1.7H123z"/>
				<path class="st1" d="M126.3,314.6v-1.9c0.8,0.6,1.6,0.9,2.5,0.9c1.2,0,1.8-0.4,1.8-1.1c0-0.2-0.1-0.4-0.2-0.5s-0.2-0.3-0.4-0.4
					c-0.2-0.1-0.4-0.2-0.6-0.3c-0.2-0.1-0.5-0.2-0.8-0.3c-0.4-0.1-0.7-0.3-1-0.5c-0.3-0.2-0.5-0.3-0.7-0.6c-0.2-0.2-0.3-0.4-0.4-0.7
					s-0.1-0.6-0.1-0.9c0-0.4,0.1-0.8,0.3-1.1s0.5-0.6,0.8-0.8s0.7-0.4,1.2-0.5s0.9-0.2,1.4-0.2c0.8,0,1.6,0.1,2.2,0.4v1.8
					c-0.6-0.4-1.4-0.7-2.2-0.7c-0.3,0-0.5,0-0.7,0.1s-0.4,0.1-0.5,0.2s-0.3,0.2-0.3,0.3s-0.1,0.3-0.1,0.4c0,0.2,0,0.4,0.1,0.5
					s0.2,0.3,0.4,0.4s0.4,0.2,0.6,0.3s0.5,0.2,0.8,0.3c0.4,0.2,0.7,0.3,1,0.5c0.3,0.2,0.6,0.4,0.8,0.6s0.4,0.4,0.5,0.7
					s0.2,0.6,0.2,1c0,0.5-0.1,0.9-0.3,1.2s-0.5,0.6-0.8,0.8s-0.8,0.4-1.2,0.5c-0.5,0.1-0.9,0.2-1.5,0.2
					C127.9,315.1,127,315,126.3,314.6z"/>
				<path class="st1" d="M142.6,314.9h-2V310c0-1.8-0.6-2.7-1.8-2.7c-0.6,0-1.1,0.3-1.5,0.8s-0.6,1.2-0.6,2v4.8h-2v-13.3h2v5.8h0
					c0.7-1.1,1.7-1.7,2.9-1.7c2,0,3,1.2,3,3.7V314.9z"/>
				<path class="st1" d="M154.8,314.8c-0.4,0.2-0.9,0.3-1.6,0.3c-1.7,0-2.6-0.8-2.6-2.5v-5.1h-1.5v-1.6h1.5v-2.1l2-0.6v2.7h2.2v1.6
					h-2.2v4.5c0,0.5,0.1,0.9,0.3,1.1s0.5,0.3,1,0.3c0.3,0,0.6-0.1,0.9-0.3V314.8z"/>
				<path class="st1" d="M164.5,314.9h-2V310c0-1.8-0.6-2.7-1.8-2.7c-0.6,0-1.1,0.3-1.5,0.8s-0.6,1.2-0.6,2v4.8h-2v-13.3h2v5.8h0
					c0.7-1.1,1.7-1.7,2.9-1.7c2,0,3,1.2,3,3.7V314.9z"/>
				<path class="st1" d="M174.6,311h-6.1c0,0.8,0.3,1.5,0.8,1.9c0.5,0.5,1.2,0.7,2,0.7c1,0,1.8-0.3,2.6-0.9v1.6
					c-0.8,0.5-1.9,0.8-3.3,0.8c-1.3,0-2.4-0.4-3.1-1.2c-0.8-0.8-1.1-2-1.1-3.5c0-1.4,0.4-2.5,1.2-3.4s1.9-1.3,3.1-1.3
					s2.2,0.4,2.9,1.2s1,1.9,1,3.3V311z M172.7,309.5c0-0.7-0.2-1.3-0.5-1.7s-0.8-0.6-1.4-0.6c-0.6,0-1.1,0.2-1.5,0.6
					c-0.4,0.4-0.7,1-0.8,1.7H172.7z"/>
				<path class="st1" d="M183.6,313.6L183.6,313.6l0,5.5h-2v-13.1h2v1.6h0c0.7-1.2,1.7-1.8,3.1-1.8c1.1,0,2,0.4,2.7,1.2s1,1.9,1,3.2
					c0,1.5-0.4,2.7-1.1,3.6s-1.7,1.4-3,1.4C185.1,315.1,184.2,314.6,183.6,313.6z M183.6,310v1.1c0,0.7,0.2,1.2,0.6,1.7
					s1,0.7,1.6,0.7c0.8,0,1.3-0.3,1.8-0.9c0.4-0.6,0.6-1.4,0.6-2.5c0-0.9-0.2-1.6-0.6-2.1c-0.4-0.5-0.9-0.8-1.6-0.8
					c-0.7,0-1.3,0.3-1.8,0.8S183.6,309.3,183.6,310z"/>
				<path class="st1" d="M199.1,314.9h-2v-1.4h0c-0.6,1.1-1.5,1.6-2.7,1.6c-0.9,0-1.6-0.2-2.1-0.7c-0.5-0.5-0.8-1.1-0.8-1.9
					c0-1.7,1-2.7,2.9-3l2.7-0.4c0-1.3-0.6-1.9-1.8-1.9c-1.1,0-2,0.4-2.9,1.1v-1.8c0.9-0.6,2-0.8,3.3-0.8c2.3,0,3.4,1.1,3.4,3.4
					V314.9z M197.1,310.5l-1.9,0.3c-0.6,0.1-1,0.2-1.3,0.4c-0.3,0.2-0.4,0.6-0.4,1.1c0,0.4,0.1,0.7,0.4,0.9c0.3,0.2,0.6,0.4,1.1,0.4
					c0.6,0,1.1-0.2,1.5-0.7c0.4-0.4,0.6-1,0.6-1.6V310.5z"/>
				<path class="st1" d="M209.8,314.2c0,3.3-1.7,5-5,5c-1.2,0-2.2-0.2-3.1-0.6v-1.9c1,0.6,1.9,0.8,2.8,0.8c2.1,0,3.2-1.1,3.2-3.2v-1
					h0c-0.7,1.1-1.7,1.7-3,1.7c-1.1,0-2-0.4-2.6-1.2c-0.7-0.8-1-1.9-1-3.2c0-1.5,0.4-2.7,1.1-3.6s1.7-1.4,3-1.4
					c1.2,0,2.1,0.5,2.6,1.5h0v-1.2h2V314.2z M207.7,310.8v-1.2c0-0.6-0.2-1.2-0.6-1.6c-0.4-0.4-0.9-0.7-1.6-0.7
					c-0.8,0-1.4,0.3-1.8,0.9s-0.7,1.4-0.7,2.4c0,0.9,0.2,1.6,0.6,2.1c0.4,0.5,1,0.8,1.7,0.8c0.7,0,1.3-0.3,1.7-0.8
					S207.7,311.6,207.7,310.8z"/>
				<path class="st1" d="M220,311h-6.1c0,0.8,0.3,1.5,0.8,1.9c0.5,0.5,1.2,0.7,2,0.7c1,0,1.8-0.3,2.6-0.9v1.6
					c-0.8,0.5-1.9,0.8-3.3,0.8c-1.3,0-2.4-0.4-3.1-1.2c-0.8-0.8-1.1-2-1.1-3.5c0-1.4,0.4-2.5,1.2-3.4s1.9-1.3,3.1-1.3
					s2.2,0.4,2.9,1.2s1,1.9,1,3.3V311z M218.1,309.5c0-0.7-0.2-1.3-0.5-1.7s-0.8-0.6-1.4-0.6c-0.6,0-1.1,0.2-1.5,0.6
					c-0.4,0.4-0.7,1-0.8,1.7H218.1z"/>
			</g>
		</g>
		<g>
			<rect x="58.3" y="183.9" class="st8" width="304.6" height="61.8"/>
			<path class="st9" d="M62.9,220.9v-35h9.6c1.4,0,2.8,0.2,3.9,0.6c1.2,0.4,2.2,0.9,3,1.6c0.8,0.7,1.5,1.6,1.9,2.6
				c0.4,1,0.7,2.1,0.7,3.3c0,1-0.1,2-0.4,2.8c-0.3,0.9-0.7,1.7-1.2,2.4c-0.5,0.7-1.2,1.4-1.9,1.9c-0.8,0.5-1.6,0.9-2.6,1.3v0.1
				c1.2,0.1,2.2,0.4,3.2,0.9c1,0.5,1.8,1,2.5,1.8s1.2,1.6,1.6,2.6c0.4,1,0.6,2.1,0.6,3.2c0,1.5-0.3,2.8-0.8,4.1
				c-0.5,1.2-1.3,2.3-2.3,3.2c-1,0.9-2.1,1.6-3.5,2.1c-1.3,0.5-2.8,0.7-4.4,0.7H62.9z M66.1,188.9v12.4h4.5c1.2,0,2.3-0.2,3.2-0.5
				c1-0.3,1.8-0.8,2.5-1.3s1.2-1.3,1.6-2.1c0.4-0.8,0.5-1.8,0.5-2.8c0-3.8-2.4-5.7-7.1-5.7H66.1z M66.1,204.2V218h6
				c2.6,0,4.6-0.6,6-1.8c1.4-1.2,2.1-2.9,2.1-5.2c0-4.5-3.1-6.7-9.2-6.7H66.1z"/>
			<path class="st9" d="M104.7,220.9v-4.4h-0.1c-0.8,1.6-1.9,2.8-3.3,3.7c-1.4,0.9-3,1.3-4.8,1.3c-1.2,0-2.3-0.2-3.3-0.5
				c-1-0.3-1.8-0.8-2.5-1.5c-0.7-0.6-1.2-1.4-1.6-2.3c-0.4-0.9-0.5-1.8-0.5-2.9c0-2.3,0.7-4.1,2.1-5.4c1.4-1.3,3.5-2.2,6.3-2.6
				l7.6-1.1c0-4.8-1.9-7.2-5.6-7.2c-2.9,0-5.6,1.1-8.1,3.2v-3.4c0.5-0.4,1.1-0.7,1.8-1c0.7-0.3,1.4-0.6,2.1-0.8s1.5-0.4,2.3-0.5
				c0.8-0.1,1.5-0.2,2.3-0.2c2.8,0,4.9,0.8,6.3,2.3c1.4,1.6,2.1,3.9,2.1,7v16.3H104.7z M98.2,208.8c-1.1,0.2-2.1,0.4-2.9,0.6
				c-0.8,0.2-1.5,0.6-2,1c-0.5,0.4-0.9,0.9-1.1,1.5s-0.4,1.4-0.4,2.3c0,0.7,0.1,1.3,0.4,1.9c0.2,0.6,0.6,1.1,1,1.5
				c0.4,0.4,1,0.7,1.6,1c0.6,0.2,1.4,0.3,2.2,0.3c1.1,0,2.1-0.2,3.1-0.6c0.9-0.4,1.7-1,2.4-1.8c0.7-0.7,1.2-1.6,1.6-2.7
				c0.4-1,0.6-2.2,0.6-3.4v-2.5L98.2,208.8z"/>
			<path class="st9" d="M132.9,220.9v-4.4h-0.1c-0.8,1.6-2,2.8-3.6,3.7c-1.5,0.9-3.3,1.3-5.2,1.3c-1.6,0-3-0.3-4.3-0.9
				c-1.3-0.6-2.4-1.4-3.3-2.5c-0.9-1.1-1.6-2.4-2.1-4c-0.5-1.5-0.7-3.3-0.7-5.2c0-2,0.3-3.9,0.8-5.5c0.5-1.7,1.3-3.1,2.3-4.3
				c1-1.2,2.2-2.1,3.6-2.8c1.4-0.7,3-1,4.7-1c3.6,0,6.2,1.4,7.7,4.3h0.1v-15.7h3.1v37H132.9z M132.9,205.8c0-1.1-0.2-2.1-0.6-3.1
				c-0.4-0.9-0.9-1.8-1.6-2.5c-0.7-0.7-1.5-1.3-2.4-1.7c-0.9-0.4-2-0.6-3.1-0.6c-1.2,0-2.4,0.2-3.4,0.7c-1,0.5-1.9,1.2-2.7,2.1
				c-0.7,0.9-1.3,2-1.7,3.4c-0.4,1.3-0.6,2.8-0.6,4.5c0,1.6,0.2,3,0.6,4.2c0.4,1.3,0.9,2.3,1.6,3.2c0.7,0.9,1.5,1.5,2.5,2
				c1,0.5,2,0.7,3.2,0.7c1.3,0,2.4-0.2,3.4-0.7c1-0.5,1.9-1.1,2.6-1.9c0.7-0.8,1.3-1.7,1.6-2.8c0.4-1.1,0.6-2.2,0.6-3.4V205.8z"/>
			<path class="st9" d="M170.1,199.1c-0.7-0.5-1.7-0.8-2.8-0.8c-0.8,0-1.6,0.2-2.2,0.5s-1.2,0.7-1.7,1.3c-0.5,0.5-0.9,1.2-1.2,1.9
				c-0.3,0.7-0.6,1.4-0.8,2.2c-0.2,0.8-0.4,1.5-0.4,2.3c-0.1,0.8-0.1,1.5-0.1,2.2v12.2h-3.1v-25h3.1v5.3h0.1
				c0.3-0.9,0.7-1.7,1.1-2.5c0.4-0.7,1-1.3,1.5-1.8c0.6-0.5,1.2-0.9,1.9-1.1c0.7-0.3,1.4-0.4,2.2-0.4c0.5,0,1,0,1.4,0.1
				c0.4,0.1,0.8,0.2,1.1,0.3V199.1z"/>
			<path class="st9" d="M175.5,209c0,1.5,0.2,2.9,0.6,4.1s1,2.3,1.7,3.1c0.7,0.8,1.6,1.5,2.7,1.9c1,0.4,2.2,0.7,3.6,0.7
				c2.8,0,5.5-1,8-3v3.1c-2.4,1.7-5.3,2.6-8.7,2.6c-1.7,0-3.2-0.3-4.6-0.9s-2.5-1.4-3.5-2.6c-1-1.1-1.7-2.5-2.2-4.1
				c-0.5-1.6-0.8-3.5-0.8-5.6c0-1.9,0.3-3.6,0.9-5.2c0.6-1.6,1.4-3,2.4-4.1c1-1.2,2.2-2.1,3.6-2.7c1.4-0.7,2.9-1,4.5-1
				c1.6,0,3,0.3,4.3,0.8c1.2,0.6,2.3,1.4,3.1,2.4c0.8,1,1.5,2.3,1.9,3.8c0.4,1.5,0.7,3.2,0.7,5v1.6H175.5z M190.4,206.2
				c0-2.6-0.7-4.6-1.9-6.1c-1.2-1.4-2.8-2.1-5-2.1c-1.1,0-2,0.2-2.9,0.6c-0.9,0.4-1.7,0.9-2.4,1.6s-1.2,1.6-1.7,2.6
				c-0.4,1-0.8,2.2-0.9,3.4H190.4z"/>
			<path class="st9" d="M217.2,232.4v-15.9h-0.1c-1.8,3.4-4.7,5-8.8,5c-1.6,0-3-0.3-4.3-0.9c-1.3-0.6-2.4-1.4-3.3-2.5
				c-0.9-1.1-1.6-2.4-2.1-4c-0.5-1.6-0.7-3.3-0.7-5.2c0-2.1,0.3-4,0.8-5.6c0.6-1.7,1.3-3.1,2.4-4.3c1-1.2,2.2-2.1,3.6-2.7
				c1.4-0.6,3-1,4.7-1c3.6,0,6.1,1.4,7.7,4.3h0.1v-3.8h3.1v36.5H217.2z M217.2,206c0-1.1-0.2-2.2-0.5-3.1c-0.4-1-0.9-1.8-1.5-2.5
				c-0.7-0.7-1.5-1.3-2.4-1.7c-0.9-0.4-2-0.6-3.1-0.6c-1.2,0-2.4,0.2-3.4,0.7c-1,0.5-1.9,1.2-2.6,2.1c-0.7,0.9-1.3,2-1.7,3.4
				c-0.4,1.3-0.6,2.9-0.6,4.6c0,1.6,0.2,3,0.6,4.2c0.4,1.2,0.9,2.3,1.6,3.1c0.7,0.9,1.5,1.5,2.4,2c0.9,0.5,2,0.7,3.1,0.7
				c1.3,0,2.5-0.2,3.6-0.7c1-0.5,1.9-1.1,2.6-1.9c0.7-0.8,1.2-1.7,1.6-2.8c0.4-1.1,0.6-2.2,0.6-3.5V206z"/>
			<path class="st9" d="M244.8,220.9v-4.2h-0.1c-1.7,3.2-4.3,4.8-7.9,4.8c-5.9,0-8.9-3.6-8.9-10.9v-14.7h3.1V210
				c0,3,0.5,5.2,1.6,6.6c1.1,1.4,2.7,2.1,4.9,2.1c1.1,0,2.1-0.2,2.9-0.6c0.9-0.4,1.7-1,2.3-1.8c0.6-0.8,1.1-1.7,1.5-2.7
				c0.4-1.1,0.5-2.2,0.5-3.5v-14.3h3.1v25H244.8z"/>
			<path class="st9" d="M257.4,209c0,1.5,0.2,2.9,0.6,4.1s1,2.3,1.7,3.1c0.7,0.8,1.6,1.5,2.7,1.9c1,0.4,2.2,0.7,3.6,0.7
				c2.8,0,5.5-1,8-3v3.1c-2.4,1.7-5.3,2.6-8.7,2.6c-1.7,0-3.2-0.3-4.6-0.9s-2.5-1.4-3.5-2.6c-1-1.1-1.7-2.5-2.2-4.1
				c-0.5-1.6-0.8-3.5-0.8-5.6c0-1.9,0.3-3.6,0.9-5.2c0.6-1.6,1.4-3,2.4-4.1c1-1.2,2.2-2.1,3.6-2.7c1.4-0.7,2.9-1,4.5-1
				c1.6,0,3,0.3,4.3,0.8c1.2,0.6,2.3,1.4,3.1,2.4c0.8,1,1.5,2.3,1.9,3.8c0.4,1.5,0.7,3.2,0.7,5v1.6H257.4z M272.3,206.2
				c0-2.6-0.7-4.6-1.9-6.1c-1.2-1.4-2.8-2.1-5-2.1c-1.1,0-2,0.2-2.9,0.6c-0.9,0.4-1.7,0.9-2.4,1.6s-1.2,1.6-1.7,2.6
				c-0.4,1-0.8,2.2-0.9,3.4H272.3z"/>
			<path class="st9" d="M280.2,216.4c0.5,0.4,1,0.7,1.5,1c0.6,0.3,1.1,0.5,1.7,0.8c0.6,0.2,1.2,0.4,1.8,0.5c0.6,0.1,1.2,0.2,1.7,0.2
				c3.7,0,5.6-1.4,5.6-4.2c0-0.6-0.1-1.2-0.4-1.6c-0.3-0.5-0.6-0.9-1.1-1.3c-0.5-0.4-1.1-0.7-1.8-1.1c-0.7-0.3-1.5-0.7-2.3-1
				c-1.2-0.5-2.1-1-3-1.4s-1.5-1-2.1-1.6c-0.5-0.6-0.9-1.2-1.2-1.9c-0.3-0.7-0.4-1.5-0.4-2.4c0-1.1,0.2-2.1,0.7-3
				c0.5-0.9,1.1-1.6,1.9-2.2c0.8-0.6,1.8-1.1,2.8-1.4c1.1-0.3,2.2-0.5,3.4-0.5c2.2,0,4.1,0.4,5.7,1.2v3.3c-1.9-1.2-3.9-1.8-6.1-1.8
				c-0.8,0-1.5,0.1-2.1,0.3c-0.6,0.2-1.2,0.5-1.6,0.8c-0.5,0.4-0.8,0.8-1.1,1.3c-0.3,0.5-0.4,1-0.4,1.6c0,0.6,0.1,1.2,0.3,1.6
				s0.5,0.9,0.9,1.3c0.4,0.4,1,0.7,1.6,1.1c0.7,0.3,1.5,0.7,2.4,1.1c1.2,0.5,2.2,1,3.1,1.5c0.9,0.5,1.6,1,2.2,1.6
				c0.6,0.6,1,1.2,1.3,1.9c0.3,0.7,0.4,1.5,0.4,2.4c0,1.1-0.2,2.1-0.7,3c-0.5,0.9-1.1,1.6-1.9,2.2c-0.8,0.6-1.8,1.1-2.9,1.4
				c-1.1,0.3-2.3,0.5-3.6,0.5c-2.5,0-4.6-0.5-6.4-1.6V216.4z"/>
			<path class="st9" d="M312.7,220.6c-1.1,0.5-2.2,0.8-3.5,0.8c-4,0-6.1-2.3-6.1-7v-15.8h-4.4v-2.7h4.4v-6.3l3.1-1v7.3h6.4v2.7h-6.4
				v15.3c0,1.7,0.3,2.9,0.8,3.7c0.6,0.7,1.5,1.1,2.8,1.1c1,0,1.9-0.3,2.8-0.9V220.6z"/>
			<path class="st9" d="M319.3,221.4c-0.7,0-1.2-0.2-1.7-0.7c-0.5-0.5-0.7-1-0.7-1.7c0-0.7,0.2-1.2,0.7-1.7c0.4-0.5,1-0.7,1.7-0.7
				c0.3,0,0.6,0.1,0.9,0.2c0.3,0.1,0.5,0.3,0.7,0.5c0.2,0.2,0.4,0.5,0.5,0.7c0.1,0.3,0.2,0.6,0.2,1c0,0.3-0.1,0.6-0.2,0.9
				c-0.1,0.3-0.3,0.5-0.5,0.7c-0.2,0.2-0.5,0.4-0.7,0.5C319.9,221.3,319.6,221.4,319.3,221.4z"/>
		</g>
		<g>
			<rect x="56" y="140" class="st8" width="95.1" height="40"/>
			<path class="st9" d="M72.7,141.6v18.8h4.4v2.3h-4.4v7h-2.5v-7H57v-2.3c1.2-1.4,2.5-2.9,3.8-4.5c1.3-1.6,2.5-3.2,3.6-4.9
				c1.2-1.6,2.2-3.3,3.2-4.9c1-1.6,1.8-3.1,2.5-4.5H72.7z M70.3,160.3v-14.8c-1,1.7-1.9,3.2-2.9,4.7c-1,1.4-1.9,2.8-2.8,4
				c-0.9,1.2-1.7,2.4-2.6,3.4c-0.8,1-1.6,1.9-2.2,2.8H70.3z"/>
			<path class="st9" d="M88.3,170c-1.3,0-2.5-0.3-3.6-0.9s-2-1.5-2.7-2.6c-0.7-1.2-1.3-2.6-1.7-4.3c-0.4-1.7-0.6-3.7-0.6-6
				c0-5,0.8-8.7,2.4-11.3c1.6-2.5,3.8-3.8,6.8-3.8c5.6,0,8.4,4.8,8.4,14.4c0,2.4-0.2,4.5-0.6,6.3c-0.4,1.8-1,3.3-1.8,4.6
				c-0.8,1.2-1.7,2.2-2.8,2.8S89.7,170,88.3,170z M88.7,143.3c-2.1,0-3.7,1.1-4.8,3.2s-1.6,5.3-1.6,9.5c0,3.9,0.5,6.9,1.6,8.9
				c1,2,2.6,3,4.7,3c1,0,1.9-0.3,2.7-0.8s1.4-1.3,1.9-2.3c0.5-1,0.9-2.3,1.2-3.8c0.3-1.5,0.4-3.2,0.4-5.2
				C94.7,147.4,92.7,143.3,88.7,143.3z"/>
			<path class="st9" d="M109.3,170c-1.3,0-2.5-0.3-3.6-0.9s-2-1.5-2.7-2.6c-0.7-1.2-1.3-2.6-1.7-4.3c-0.4-1.7-0.6-3.7-0.6-6
				c0-5,0.8-8.7,2.4-11.3c1.6-2.5,3.8-3.8,6.8-3.8c5.6,0,8.4,4.8,8.4,14.4c0,2.4-0.2,4.5-0.6,6.3c-0.4,1.8-1,3.3-1.8,4.6
				c-0.8,1.2-1.7,2.2-2.8,2.8S110.8,170,109.3,170z M109.8,143.3c-2.1,0-3.7,1.1-4.8,3.2s-1.6,5.3-1.6,9.5c0,3.9,0.5,6.9,1.6,8.9
				c1,2,2.6,3,4.7,3c1,0,1.9-0.3,2.7-0.8s1.4-1.3,1.9-2.3c0.5-1,0.9-2.3,1.2-3.8c0.3-1.5,0.4-3.2,0.4-5.2
				C115.8,147.4,113.8,143.3,109.8,143.3z"/>
		</g>
		<g>
			<path class="st10" d="M102.4,90.8c0-0.4-0.2-0.7-0.5-0.9h0l0,0l-16.1-9.5c-0.1,0-0.1-0.1-0.2-0.1c-0.6-0.3-1.4-0.3-2,0
				c-0.1,0-0.1,0.1-0.2,0.1l-16.1,9.5l0,0c-0.5,0.3-0.6,1-0.3,1.4c0.1,0.1,0.2,0.3,0.4,0.4l16.1,9.5c0.1,0,0.1,0.1,0.2,0.1
				c0.6,0.3,1.4,0.3,2,0c0.1,0,0.1-0.1,0.2-0.1l16.1-9.5C102.2,91.5,102.4,91.1,102.4,90.8z"/>
			<path class="st11" d="M69.2,84.4h10.5v9.7H69.2V84.4z M100.3,74.6v-4.4c0-1.1-0.8-2-2-2H70.9c-1.1,0-2,0.9-2,2v4.4l16.2,4.3
				L100.3,74.6z"/>
			<path class="st12" d="M69,74.6h10.8v9.7H69V74.6z"/>
			<path class="st13" d="M90.5,74.6H79.8v9.7L90.5,94h9.7v-9.7L90.5,74.6z"/>
			<path class="st12" d="M79.8,84.3h10.8V94H79.8V84.3z"/>
			<path class="st11" d="M79.8,94h10.8v9.7H79.8V94z"/>
			<path class="st14" d="M69.2,94.1h10.5v8.8H69.2V94.1z"/>
			<path class="st12" d="M90.5,94h9.7v9.7h-9.7V94z"/>
			
				<linearGradient id="SVGID_1_" gradientUnits="userSpaceOnUse" x1="84.6157" y1="-822.572" x2="84.6157" y2="-802.0801" gradientTransform="matrix(1 0 0 1 0 913.3334)">
				<stop  offset="0" style="stop-color:#35B8F1"/>
				<stop  offset="1" style="stop-color:#28A8EA"/>
			</linearGradient>
			<path class="st15" d="M101.9,91.6L101.9,91.6l-16.1,9c-0.1,0-0.1,0.1-0.2,0.1c-0.3,0.1-0.6,0.2-0.9,0.2l-0.9-0.5
				c-0.1,0-0.1-0.1-0.2-0.1l-16.3-9.3h0l-0.5-0.3v18.3c0,1.2,1,2.2,2.2,2.2h31.2c0,0,0,0,0.1,0c0.3,0,0.5-0.1,0.8-0.2
				c0.1,0,0.2-0.1,0.3-0.2c0.1,0,0.2-0.1,0.2-0.1c0.6-0.4,0.9-1.1,0.9-1.7V90.8C102.4,91.1,102.2,91.4,101.9,91.6z"/>
			<path class="st16" d="M101.5,90.7v1.1l-16.8,11.6L67.3,91.1c0,0,0,0,0,0l0,0l-1.6-1v-0.8l0.7,0l1.4,0.8l0,0l0.1,0.1
				c0,0,16.4,9.3,16.4,9.4l0.6,0.4c0.1,0,0.1,0,0.2-0.1c0,0,16.2-9.1,16.2-9.1L101.5,90.7z"/>
			<path class="st17" d="M101.9,91.6L101.9,91.6l-16.1,9c-0.1,0-0.1,0.1-0.2,0.1c-0.6,0.3-1.4,0.3-2,0c-0.1,0-0.1-0.1-0.2-0.1
				l-16.1-9l0,0c-0.3-0.2-0.5-0.5-0.5-0.8v18.3c0,1.2,1,2.2,2.2,2.2c0,0,0,0,0,0h31.1c1.2,0,2.2-1,2.2-2.2c0,0,0,0,0,0V90.8
				C102.4,91.1,102.2,91.4,101.9,91.6z"/>
			<path class="st18" d="M86.1,100.5l-0.2,0.1c-0.1,0-0.1,0.1-0.2,0.1c-0.3,0.1-0.6,0.2-0.8,0.2l6.1,7.2l10.7,2.6
				c0.3-0.2,0.5-0.5,0.7-0.8L86.1,100.5z"/>
			<path class="st19" d="M87.2,99.9l-1.3,0.7c-0.1,0-0.1,0.1-0.2,0.1c-0.3,0.1-0.6,0.2-0.8,0.2l2.9,7.9l13.9,1.9
				c0.5-0.4,0.9-1.1,0.9-1.7v-0.2L87.2,99.9z"/>
			<path class="st13" d="M69.1,111.3h31.1c0.5,0,0.9-0.1,1.3-0.4l-17.7-10.3c-0.1,0-0.1-0.1-0.2-0.1l-16.3-9.3h0l-0.5-0.3V109
				C66.8,110.2,67.8,111.3,69.1,111.3C69.1,111.3,69.1,111.3,69.1,111.3z"/>
			<path class="st18" d="M81.9,78.7v23c0,0.8-0.5,1.5-1.2,1.8c-0.2,0.1-0.5,0.2-0.7,0.2H66.8V77.8H69v-1.1h11
				C81,76.7,81.9,77.6,81.9,78.7z"/>
			<path class="st20" d="M80.8,79.8v23c0,0.3-0.1,0.5-0.2,0.8c-0.3,0.7-1,1.2-1.8,1.2h-12v-27h12c0.3,0,0.6,0.1,0.9,0.2
				C80.4,78.4,80.8,79.1,80.8,79.8z"/>
			<path class="st20" d="M80.8,79.8v20.8c0,1.1-0.9,2-2,2h-12V77.8h12c0.3,0,0.6,0.1,0.9,0.2C80.4,78.4,80.8,79.1,80.8,79.8z"/>
			<path class="st20" d="M79.8,79.8v20.8c0,1.1-0.9,2-2,2h-11V77.8h11C78.9,77.8,79.8,78.7,79.8,79.8C79.8,79.8,79.8,79.8,79.8,79.8
				z"/>
			
				<linearGradient id="SVGID_2_" gradientUnits="userSpaceOnUse" x1="60.1569" y1="-837.059" x2="75.6404" y2="-810.2421" gradientTransform="matrix(1 0 0 1 0 913.3334)">
				<stop  offset="0" style="stop-color:#1784D9"/>
				<stop  offset="0.5" style="stop-color:#107AD5"/>
				<stop  offset="1" style="stop-color:#0A63C9"/>
			</linearGradient>
			<path class="st21" d="M58,77.8h19.8c1.1,0,2,0.9,2,2v19.8c0,1.1-0.9,2-2,2H58c-1.1,0-2-0.9-2-2V79.8C56,78.7,56.9,77.8,58,77.8z"
				/>
			<path class="st1" d="M62.2,86.1c0.5-1,1.3-1.9,2.3-2.5c1.1-0.6,2.3-0.9,3.6-0.9c1.2,0,2.3,0.3,3.3,0.9c0.9,0.6,1.7,1.4,2.2,2.4
				c0.5,1.1,0.8,2.3,0.8,3.5c0,1.3-0.2,2.5-0.8,3.7c-0.5,1-1.3,1.9-2.3,2.5c-1,0.6-2.2,0.9-3.4,0.9c-1.2,0-2.4-0.3-3.4-0.9
				c-1-0.6-1.7-1.4-2.2-2.4c-0.5-1.1-0.8-2.3-0.8-3.5C61.4,88.5,61.7,87.3,62.2,86.1z M64.6,92c0.3,0.7,0.7,1.2,1.3,1.6
				c0.6,0.4,1.3,0.6,2,0.6c0.8,0,1.5-0.2,2.1-0.6c0.6-0.4,1-1,1.2-1.6c0.3-0.7,0.4-1.5,0.4-2.3c0-0.8-0.1-1.6-0.4-2.3
				c-0.2-0.7-0.6-1.3-1.2-1.7c-0.6-0.5-1.3-0.7-2.1-0.6c-0.7,0-1.4,0.2-2,0.6c-0.6,0.4-1,1-1.3,1.7C64,88.8,64,90.4,64.6,92L64.6,92
				z"/>
			<path class="st22" d="M90.5,74.6h9.7v9.7h-9.7V74.6z"/>
		</g>
	</g>
	<path class="st23" d="M419.6,41.5c-57-48.1-142.2-40.9-190.3,16.1s-40.9,142.2,16.1,190.3c53.3,45,132.1,42,181.8-7l165.6,139.7
		c5.2,4.4,13.1,3.8,17.5-1.5c4.4-5.2,3.8-13.1-1.5-17.5l0,0L443.3,221.9C483.2,164.7,472.9,86.5,419.6,41.5z M408.9,208.5
		c-36,42.7-99.8,48.1-142.5,12.1c-42.7-36-48.1-99.8-12.1-142.5s99.8-48.1,142.5-12.1h0C439.5,102,444.9,165.8,408.9,208.5
		C408.9,208.5,408.9,208.5,408.9,208.5z"/>
	<path class="st24" d="M266.4,220.6c-40.2-34-47.7-93.1-17.2-136c-1.9,1.9-3.8,4-5.6,6.1c-36,42.7-30.6,106.5,12.1,142.5
		c42.7,36,106.5,30.6,142.5-12.1c1.8-2.1,3.5-4.3,5.1-6.6C366.2,251.9,306.6,254.5,266.4,220.6z"/>
	<path class="st7" d="M545,324.5c5.4,1.3,10.8-2,12.2-7.4c0.1-0.6,0.2-1.2,0.3-1.8l34.4-9.6l-14-12.2l-30.6,10.9
		c-5.6,0-10.1,4.6-10.1,10.1C537.2,319.4,540.4,323.5,545,324.5z"/>
	<path class="st6" d="M559.3,319.5l-2.1-19.9l28.8-15.9L567.2,261l3.1-25.5l7.6-3.3l0.2,0.3c3.6,4.6,35.1,45.3,35.1,50.3
		c0,5.2-6,20.3-14.3,24.4c-8,4-37.8,11.7-39.1,12L559.3,319.5z"/>
	<path class="st25" d="M708.5,558.6h-381c-0.6,0-1-0.4-1-1s0.4-1,1-1h381c0.6,0,1,0.4,1,1S709.1,558.6,708.5,558.6z"/>
</g>
</svg>
