<svg width="1046" height="512" viewBox="0 0 1046 104" fill="none" xmlns="http://www.w3.org/2000/svg">
<path d="M137.618 103.031C128.398 103.031 120.008 100.956 112.448 96.8073C110.881 95.7009 110.097 94.1797 110.097 92.2435C110.097 90.7684 110.604 89.4776 111.618 88.3712C112.633 87.2649 113.923 86.7117 115.491 86.7117C116.32 86.7117 117.15 86.8961 117.98 87.2649C120.93 88.5556 123.881 89.5698 126.831 90.3074C129.781 91.045 133.1 91.4137 136.788 91.4137C147.022 91.4137 152.139 88.1407 152.139 81.5947C152.139 79.4742 150.941 77.8607 148.543 76.7544C146.239 75.648 142.412 74.4033 137.065 73.0204C131.625 71.7296 127.108 70.3927 123.512 69.0098C120.008 67.6268 116.966 65.5524 114.384 62.7864C111.895 59.9283 110.65 56.1943 110.65 51.5845C110.65 45.1306 112.955 39.8754 117.565 35.8187C122.267 31.762 128.952 29.7337 137.618 29.7337C144.717 29.7337 151.402 30.8861 157.671 33.1911C158.962 33.5599 159.93 34.2513 160.575 35.2655C161.313 36.2797 161.682 37.34 161.682 38.4463C161.682 39.9215 161.128 41.2122 160.022 42.3186C159.008 43.425 157.717 43.9782 156.15 43.9782C155.689 43.9782 155.09 43.886 154.352 43.7016C149.004 42.042 143.749 41.2122 138.586 41.2122C133.608 41.2122 129.689 42.1342 126.831 43.9782C124.065 45.7299 122.682 48.0349 122.682 50.893C122.682 53.6589 123.973 55.6872 126.554 56.978C129.136 58.2688 133.147 59.5134 138.586 60.712C144.026 62.095 148.451 63.4779 151.863 64.8609C155.274 66.1517 158.178 68.2261 160.575 71.0842C163.065 73.9423 164.309 77.7685 164.309 82.5628C164.309 88.4634 161.958 93.3499 157.256 97.2222C152.646 101.094 146.1 103.031 137.618 103.031Z" fill="#0072C6"/>
<path d="M187.47 102.339C185.718 102.339 184.243 101.74 183.044 100.541C181.845 99.3427 181.246 97.8676 181.246 96.1158V6.36162C181.246 4.60987 181.845 3.13471 183.044 1.93615C184.243 0.645384 185.718 0 187.47 0C189.221 0 190.696 0.645384 191.895 1.93615C193.186 3.13471 193.831 4.60987 193.831 6.36162V62.9247L226.746 32.4996C228.129 31.301 229.512 30.7017 230.895 30.7017C233.015 30.7017 234.536 31.301 235.458 32.4996C236.472 33.6982 236.98 35.1272 236.98 36.7868C236.98 38.3541 236.196 39.9215 234.629 41.4888L214.714 59.329L239.745 92.5201C240.667 93.7187 241.128 94.9634 241.128 96.2541C241.128 98.0981 240.529 99.5732 239.331 100.68C238.132 101.786 236.611 102.339 234.767 102.339C233.845 102.339 232.923 102.109 232.001 101.648C231.079 101.187 230.295 100.541 229.65 99.7115L205.863 67.3502L193.831 78.2756V96.1158C193.831 97.8676 193.186 99.3427 191.895 100.541C190.696 101.74 189.221 102.339 187.47 102.339Z" fill="#0072C6"/>
<path d="M262.554 16.7338C260.617 16.7338 258.958 16.0424 257.575 14.6594C256.192 13.2764 255.5 11.6169 255.5 9.68073V9.12754C255.5 7.1914 256.192 5.53184 257.575 4.14888C258.958 2.76592 260.617 2.07444 262.554 2.07444H263.383C265.319 2.07444 266.979 2.76592 268.362 4.14888C269.745 5.53184 270.436 7.1914 270.436 9.12754V9.68073C270.436 11.6169 269.745 13.2764 268.362 14.6594C266.979 16.0424 265.319 16.7338 263.383 16.7338H262.554ZM262.83 102.339C261.078 102.339 259.603 101.74 258.405 100.541C257.206 99.3427 256.607 97.8676 256.607 96.1158V36.7868C256.607 35.035 257.206 33.5599 258.405 32.3613C259.603 31.0705 261.078 30.4251 262.83 30.4251C264.674 30.4251 266.195 31.0244 267.394 32.223C268.592 33.4216 269.192 34.9428 269.192 36.7868V96.1158C269.192 97.8676 268.546 99.3427 267.256 100.541C266.057 101.74 264.582 102.339 262.83 102.339Z" fill="#0072C6"/>
<path d="M297.269 102.339C295.517 102.339 294.042 101.74 292.844 100.541C291.645 99.3427 291.046 97.8676 291.046 96.1158V6.36162C291.046 4.60987 291.645 3.13471 292.844 1.93615C294.042 0.645384 295.517 0 297.269 0C299.113 0 300.634 0.599282 301.833 1.79784C303.031 2.99641 303.631 4.51767 303.631 6.36162V96.1158C303.631 97.8676 302.985 99.3427 301.695 100.541C300.496 101.74 299.021 102.339 297.269 102.339Z" fill="#0072C6"/>
<path d="M331.708 102.339C329.956 102.339 328.481 101.74 327.283 100.541C326.084 99.3427 325.485 97.8676 325.485 96.1158V6.36162C325.485 4.60987 326.084 3.13471 327.283 1.93615C328.481 0.645384 329.956 0 331.708 0C333.552 0 335.073 0.599282 336.272 1.79784C337.47 2.99641 338.07 4.51767 338.07 6.36162V96.1158C338.07 97.8676 337.424 99.3427 336.134 100.541C334.935 101.74 333.46 102.339 331.708 102.339Z" fill="#0072C6"/>
<path d="M382.743 103.031C373.523 103.031 365.133 100.956 357.573 96.8073C356.005 95.7009 355.222 94.1797 355.222 92.2435C355.222 90.7684 355.729 89.4776 356.743 88.3712C357.757 87.2649 359.048 86.7117 360.615 86.7117C361.445 86.7117 362.275 86.8961 363.105 87.2649C366.055 88.5556 369.005 89.5698 371.956 90.3074C374.906 91.045 378.225 91.4137 381.913 91.4137C392.147 91.4137 397.264 88.1407 397.264 81.5947C397.264 79.4742 396.065 77.8607 393.668 76.7544C391.363 75.648 387.537 74.4033 382.189 73.0204C376.75 71.7296 372.232 70.3927 368.636 69.0098C365.133 67.6268 362.09 65.5524 359.509 62.7864C357.02 59.9283 355.775 56.1943 355.775 51.5845C355.775 45.1306 358.08 39.8754 362.69 35.8187C367.392 31.762 374.076 29.7337 382.743 29.7337C389.842 29.7337 396.526 30.8861 402.796 33.1911C404.086 33.5599 405.054 34.2513 405.7 35.2655C406.437 36.2797 406.806 37.34 406.806 38.4463C406.806 39.9215 406.253 41.2122 405.147 42.3186C404.132 43.425 402.842 43.9782 401.274 43.9782C400.813 43.9782 400.214 43.886 399.476 43.7016C394.129 42.042 388.874 41.2122 383.711 41.2122C378.732 41.2122 374.814 42.1342 371.956 43.9782C369.19 45.7299 367.807 48.0349 367.807 50.893C367.807 53.6589 369.097 55.6872 371.679 56.978C374.26 58.2688 378.271 59.5134 383.711 60.712C389.15 62.095 393.576 63.4779 396.987 64.8609C400.398 66.1517 403.303 68.2261 405.7 71.0842C408.189 73.9423 409.434 77.7685 409.434 82.5628C409.434 88.4634 407.083 93.3499 402.381 97.2222C397.771 101.094 391.225 103.031 382.743 103.031Z" fill="#0072C6"/>
<path d="M899.375 101.346C893.099 101.48 886.897 99.9719 881.387 96.973C876.316 94.1066 872.201 89.8212 869.55 84.6476C866.672 78.9264 865.23 72.5949 865.348 66.1963C865.23 59.7978 866.672 53.4663 869.55 47.7451C872.202 42.5748 876.318 38.2927 881.387 35.4287C886.921 32.5593 893.068 31.0611 899.307 31.0611C905.546 31.0611 911.693 32.5593 917.228 35.4287C922.311 38.3058 926.448 42.5891 929.139 47.7602C932.058 53.4657 933.524 59.7993 933.406 66.2024C933.524 72.6059 932.058 78.94 929.139 84.6461C926.448 89.8169 922.311 94.1002 917.228 96.9775C911.763 99.9643 905.607 101.471 899.375 101.346ZM899.375 39.7448C895.349 39.7351 891.375 40.6566 887.767 42.4367C883.936 44.3901 880.775 47.4349 878.685 51.1835C876.209 55.749 874.998 60.8893 875.177 66.0757C874.988 71.3068 876.199 76.4939 878.685 81.1051C880.788 84.8575 883.944 87.9168 887.767 89.9077C891.366 91.7346 895.35 92.6831 899.389 92.675C903.383 92.6718 907.319 91.7233 910.873 89.9077C914.701 87.9088 917.872 84.858 920.011 81.1172C922.547 76.5183 923.786 71.321 923.596 66.0772C923.776 60.8785 922.537 55.7284 920.011 51.176C917.881 47.4384 914.7 44.4035 910.86 42.4458C907.294 40.6703 903.362 39.7451 899.375 39.7433V39.7448ZM598.936 101.346C592.658 101.48 586.456 99.9721 580.946 96.973C575.875 94.1057 571.76 89.8205 569.109 84.6476C566.23 78.929 564.787 72.6002 564.902 66.2039C564.784 59.8055 566.225 53.474 569.103 47.7527C571.756 42.5789 575.874 38.294 580.947 35.4287C586.457 32.4297 592.66 30.9218 598.937 31.0553C605.169 30.933 611.324 32.441 616.788 35.4287C621.871 38.3063 626.008 42.5895 628.699 47.7602C631.618 53.4659 633.082 59.7994 632.964 66.2024C633.083 72.6058 631.618 78.9399 628.699 84.6461C626.007 89.8166 621.87 94.0997 616.788 96.9775C611.323 99.964 605.167 101.47 598.936 101.346ZM598.936 39.7448C594.909 39.7355 590.935 40.657 587.326 42.4367C583.494 44.3896 580.333 47.4345 578.244 51.1835C575.767 55.749 574.556 60.8893 574.735 66.0757C574.546 71.3069 575.757 76.4941 578.244 81.1051C580.346 84.8577 583.503 87.9171 587.326 89.9077C590.925 91.7349 594.908 92.6834 598.948 92.675C602.941 92.672 606.877 91.7235 610.43 89.9077C614.258 87.9093 617.43 84.8583 619.568 81.1172C622.105 76.5187 623.345 71.3212 623.154 66.0772C623.334 60.8783 622.095 55.7282 619.568 51.176C617.439 47.4386 614.258 44.4038 610.418 42.4458C606.852 40.671 602.922 39.7459 598.936 39.7433V39.7448ZM1019.03 100.659C1017.53 100.676 1016.07 100.19 1014.88 99.2803C1013.63 98.3609 1012.68 97.092 1012.16 95.6354L997.522 50.0721C997.432 49.7938 997.256 49.5511 997.02 49.3789C996.783 49.2067 996.497 49.1139 996.204 49.1139C995.911 49.1139 995.625 49.2067 995.388 49.3789C995.151 49.5511 994.976 49.7938 994.886 50.0721L980.223 95.6881C979.697 97.1218 978.76 98.3702 977.529 99.2788C976.332 100.174 974.876 100.658 973.379 100.658C971.883 100.658 970.427 100.174 969.23 99.2788C968.031 98.4193 967.135 97.2058 966.669 95.8103L947.024 38.472C946.81 37.8617 946.695 37.2213 946.684 36.5748C946.672 35.938 946.79 35.3054 947.029 34.7149C947.269 34.1243 947.625 33.5878 948.077 33.1374C948.529 32.6871 949.068 32.332 949.66 32.0935C950.253 31.8549 950.888 31.7378 951.527 31.749C952.512 31.7364 953.478 32.0185 954.3 32.5589C955.041 33.01 955.601 33.7051 955.882 34.5239L972.054 87.5461C972.141 87.8283 972.316 88.0753 972.554 88.2509C972.792 88.4264 973.081 88.5211 973.377 88.5211C973.673 88.5211 973.962 88.4264 974.2 88.2509C974.438 88.0753 974.613 87.8283 974.7 87.5461L990.745 35.7288C991.108 34.5703 991.834 33.5578 992.815 32.8388C993.797 32.1199 994.983 31.7321 996.202 31.7321C997.42 31.7321 998.606 32.1199 999.588 32.8388C1000.57 33.5578 1001.29 34.5703 1001.66 35.7288L1017.7 87.5415C1017.79 87.8238 1017.97 88.0708 1018.2 88.2464C1018.44 88.4219 1018.73 88.5166 1019.03 88.5166C1019.32 88.5166 1019.61 88.4219 1019.85 88.2464C1020.09 88.0708 1020.26 87.8238 1020.35 87.5415L1036.53 34.4937C1036.82 33.6855 1037.37 33.0014 1038.11 32.5604C1038.93 32.0198 1039.9 31.7376 1040.88 31.7505C1041.52 31.7393 1042.16 31.8564 1042.75 32.095C1043.34 32.3335 1043.88 32.6886 1044.33 33.139C1044.78 33.5893 1045.14 34.1258 1045.38 34.7164C1045.62 35.3069 1045.74 35.9395 1045.73 36.5764C1045.71 37.2259 1045.6 37.8693 1045.38 38.4826L1025.74 95.8043C1025.27 97.1998 1024.38 98.4132 1023.18 99.2728C1021.99 100.187 1020.53 100.675 1019.03 100.659ZM840.035 100.659C839.395 100.677 838.759 100.563 838.165 100.324C837.572 100.085 837.035 99.7258 836.587 99.2698C835.738 98.4469 835.242 97.3288 835.202 96.1496L835.195 95.8344V6.39385C835.18 5.74213 835.298 5.09418 835.54 4.48867C835.782 3.88316 836.145 3.33248 836.605 2.8695C837.043 2.4022 837.575 2.03253 838.166 1.78481C838.757 1.5371 839.394 1.41696 840.035 1.43231C840.697 1.40515 841.356 1.51436 841.973 1.7531C842.591 1.99184 843.151 2.35497 843.621 2.81973C844.487 3.67904 844.984 4.84011 845.006 6.05755L845.014 6.39385V95.8344C845.029 96.4734 844.909 97.1084 844.66 97.6975C844.411 98.2866 844.039 98.8164 843.57 99.2517C843.105 99.7106 842.553 100.072 841.946 100.313C841.339 100.555 840.689 100.673 840.035 100.659ZM791.76 100.659C791.12 100.676 790.484 100.562 789.89 100.323C789.297 100.084 788.759 99.7255 788.312 99.2698C787.463 98.4469 786.967 97.3288 786.927 96.1496L786.919 95.8344V41.8109C786.92 41.4732 786.795 41.1473 786.57 40.895C786.345 40.6428 786.034 40.4819 785.698 40.443L785.537 40.434H777.376C776.314 40.4245 775.299 40.0003 774.549 39.2525C773.799 38.5047 773.373 37.4933 773.364 36.4361C773.343 35.9035 773.435 35.3724 773.636 34.8783C773.837 34.3843 774.141 33.9385 774.528 33.5708C775.21 32.8962 776.117 32.4956 777.076 32.4457L777.379 32.4382H785.54C785.879 32.4386 786.206 32.3148 786.459 32.0904C786.713 31.8659 786.874 31.5566 786.913 31.2212L786.922 31.0598V23.0625C786.745 18.5954 787.708 14.1565 789.721 10.161C791.33 7.11221 793.826 4.61823 796.881 3.00522C799.791 1.5185 803.014 0.743112 806.285 0.743119C810.243 0.711502 814.152 1.60617 817.7 3.3551C818.411 3.70743 819.018 4.23931 819.46 4.89785C819.887 5.49525 820.117 6.21065 820.117 6.9443C820.117 7.44714 820.017 7.94501 819.822 8.40861C819.626 8.8722 819.339 9.29215 818.979 9.64374C818.653 10.0097 818.254 10.3024 817.806 10.5024C817.358 10.7023 816.873 10.805 816.383 10.8034C815.592 10.7987 814.804 10.7123 814.032 10.5456L813.535 10.431L813.371 10.3993C810.949 10.0977 809.819 9.97552 809.465 9.97552C805.342 9.97552 802.163 10.9799 800.017 12.9615C797.871 14.9431 796.82 18.1885 796.743 22.9389V23.4818V31.0553C796.743 31.393 796.867 31.719 797.092 31.9714C797.317 32.2238 797.628 32.3851 797.964 32.4246L798.126 32.4337H815.414C815.948 32.4074 816.481 32.4927 816.98 32.6842C817.479 32.8757 817.932 33.1691 818.31 33.5456C818.688 33.922 818.982 34.3732 819.175 34.87C819.367 35.3668 819.453 35.8982 819.427 36.4301C819.437 36.9549 819.341 37.4765 819.146 37.9639C818.95 38.4514 818.659 38.8949 818.288 39.2683C817.618 39.9765 816.692 40.3904 815.715 40.4189L815.422 40.4265H798.123C797.784 40.4263 797.457 40.5502 797.204 40.7746C796.951 40.9989 796.789 41.3081 796.749 41.6435L796.74 41.8033V95.8344C796.755 96.4732 796.635 97.108 796.386 97.697C796.137 98.286 795.766 98.8159 795.297 99.2517C794.833 99.7109 794.28 100.072 793.672 100.314C793.065 100.556 792.414 100.673 791.76 100.659ZM758.424 100.659C757.675 100.649 756.939 100.462 756.277 100.114C755.65 99.8023 755.089 99.3721 754.627 98.8475L754.398 98.5716L730.634 66.3532C730.42 66.0627 730.1 65.8673 729.743 65.8089C729.386 65.7506 729.021 65.8339 728.725 66.041L728.59 66.1481L716.555 77.0363C716.309 77.2589 716.151 77.5625 716.111 77.8914L716.102 78.0573V95.8344C716.118 96.4734 715.998 97.1084 715.749 97.6975C715.5 98.2866 715.128 98.8164 714.658 99.2517C714.194 99.7103 713.642 100.071 713.035 100.313C712.427 100.554 711.778 100.671 711.124 100.657C710.484 100.675 709.847 100.561 709.253 100.322C708.66 100.083 708.122 99.7242 707.674 99.2683C706.826 98.4453 706.33 97.3272 706.291 96.1481L706.283 95.8329V6.39385C706.269 5.74238 706.387 5.09472 706.629 4.48948C706.871 3.88424 707.234 3.33381 707.694 2.871C708.131 2.40363 708.663 2.03379 709.253 1.78581C709.844 1.53784 710.481 1.41736 711.122 1.43231C711.778 1.42037 712.429 1.54363 713.034 1.79433C713.639 2.04503 714.186 2.41776 714.64 2.8891C715.519 3.7269 716.039 4.86983 716.093 6.08018L716.101 6.39385V62.7594C716.102 63.1264 716.25 63.4777 716.511 63.7366C716.772 63.9955 717.125 64.1408 717.493 64.1408C717.786 64.1406 718.071 64.0453 718.305 63.8694L718.423 63.7714L751.34 33.4516C752.203 32.6059 753.343 32.0997 754.551 32.0265C755.203 31.9551 755.862 32.0334 756.479 32.2554C757.095 32.4773 757.653 32.837 758.108 33.3069C758.939 34.2919 759.347 35.5628 759.245 36.8452C759.143 38.1276 758.539 39.3186 757.563 40.161L757.307 40.4249L737.444 58.1493C737.207 58.3593 737.051 58.6432 736.999 58.9542C736.946 59.2652 737.003 59.5845 737.157 59.8594L737.256 60.0102L762.292 93.0852C762.979 93.896 763.368 94.9155 763.397 95.9762C763.432 96.6066 763.329 97.237 763.095 97.8239C762.861 98.4108 762.503 98.9401 762.044 99.3754C761.051 100.257 759.753 100.717 758.424 100.659ZM658.138 100.659C657.498 100.677 656.862 100.563 656.268 100.324C655.675 100.085 655.137 99.7258 654.69 99.2698C653.841 98.4469 653.345 97.3288 653.305 96.1496L653.297 95.8344V36.7181C653.283 36.0666 653.401 35.4189 653.643 34.8137C653.885 34.2084 654.248 33.658 654.708 33.1953C655.145 32.7272 655.677 32.357 656.268 32.109C656.859 31.8609 657.497 31.7408 658.138 31.7566C659.403 31.7599 660.62 32.2416 661.543 33.1043C662.466 33.9671 663.025 35.1465 663.109 36.4044L663.116 36.7181V42.6373C663.115 42.8199 663.151 43.0008 663.221 43.1696C663.291 43.3383 663.394 43.4915 663.524 43.6201C663.654 43.7487 663.809 43.8502 663.979 43.9186C664.148 43.9871 664.33 44.0211 664.514 44.0187C664.728 44.0196 664.939 43.9694 665.13 43.8723C665.32 43.7752 665.485 43.6341 665.609 43.4607C668.198 39.8292 671.448 36.7148 675.191 34.2796C678.349 32.2856 681.989 31.176 685.726 31.0674H686.217H686.908C687.533 31.046 688.156 31.157 688.735 31.393C689.314 31.629 689.836 31.9848 690.267 32.4367C690.712 32.8935 691.06 33.4347 691.291 34.0283C691.521 34.6218 691.63 35.2555 691.61 35.8917C691.635 36.5005 691.528 37.1075 691.294 37.6705C691.06 38.2336 690.706 38.7392 690.256 39.1521C689.356 39.9651 688.187 40.4206 686.972 40.4325L686.63 40.44H685.938C681.418 40.4059 676.972 41.5903 673.072 43.8679C669.153 46.1852 665.826 49.3745 663.351 53.1862C663.231 53.3669 663.155 53.5738 663.132 53.7895L663.123 53.9493V95.8344C663.138 96.4734 663.018 97.1084 662.769 97.6975C662.52 98.2866 662.148 98.8164 661.678 99.2517C661.214 99.7108 660.662 100.072 660.055 100.314C659.448 100.556 658.798 100.673 658.144 100.659H658.138ZM524.935 100.659C523.436 100.676 521.975 100.191 520.786 99.2803C519.644 98.4426 518.754 97.3086 518.213 96.0018L518.062 95.6339L503.425 50.0721C503.34 49.8077 503.177 49.5751 502.957 49.4046C502.737 49.2341 502.471 49.1338 502.192 49.1167C501.914 49.0996 501.638 49.1665 501.398 49.3087C501.159 49.4509 500.968 49.6618 500.852 49.9137L500.791 50.0721L486.128 95.6896C485.603 97.1235 484.666 98.372 483.435 99.2803C482.238 100.175 480.782 100.659 479.286 100.659C477.789 100.659 476.333 100.175 475.136 99.2803C474.039 98.4929 473.193 97.4077 472.699 96.1541L472.569 95.8118L452.929 38.472C452.715 37.8617 452.6 37.2212 452.588 36.5748C452.57 35.9374 452.685 35.3031 452.925 34.7119C453.165 34.1207 453.525 33.5853 453.982 33.1395C454.43 32.6833 454.968 32.3244 455.561 32.0854C456.155 31.8463 456.792 31.7323 457.432 31.7505C458.416 31.7376 459.382 32.0198 460.204 32.5604C460.865 32.9631 461.385 33.5592 461.693 34.2675L461.793 34.5284L477.96 87.5521C478.042 87.8201 478.204 88.0569 478.425 88.231C478.645 88.405 478.914 88.508 479.194 88.5264C479.475 88.5447 479.755 88.4775 479.996 88.3336C480.237 88.1898 480.429 87.9761 480.546 87.721L480.606 87.5581L496.651 35.7409C497.006 34.6125 497.704 33.622 498.649 32.9066C499.594 32.1913 500.739 31.7866 501.925 31.7486C503.111 31.7107 504.28 32.0414 505.269 32.6948C506.258 33.3483 507.019 34.2921 507.445 35.3955L507.566 35.7454L523.611 87.5581C523.694 87.8258 523.858 88.0618 524.08 88.2346C524.301 88.4073 524.57 88.5086 524.851 88.525C525.132 88.5414 525.411 88.4721 525.652 88.3263C525.892 88.1805 526.082 87.9651 526.196 87.7089L526.257 87.5461L542.439 34.4937C542.722 33.6868 543.279 33.0038 544.014 32.5634C544.835 32.0228 545.801 31.7407 546.785 31.7535C547.424 31.7423 548.059 31.8595 548.652 32.098C549.245 32.3365 549.783 32.6916 550.235 33.142C550.687 33.5923 551.044 34.1288 551.283 34.7194C551.523 35.31 551.64 35.9425 551.629 36.5794C551.622 37.1097 551.542 37.6365 551.39 38.1447L551.284 38.4871L531.646 95.8027C531.177 97.1982 530.28 98.4116 529.081 99.2713C527.894 100.185 526.433 100.674 524.932 100.659H524.935Z" fill="#0072C6"/>
<path d="M25.1708 101.988C24.8071 101.988 24.4469 101.917 24.1109 101.778C23.7748 101.64 23.4694 101.437 23.2122 101.181C22.9549 100.925 22.7509 100.62 22.6117 100.286C22.4724 99.9509 22.4008 99.5921 22.4008 99.2297V98.7351C22.4008 98.3727 22.4724 98.0139 22.6117 97.6792C22.7509 97.3445 22.9549 97.0403 23.2122 96.7842C23.4694 96.528 23.7748 96.3249 24.1109 96.1864C24.4469 96.0478 24.8071 95.9766 25.1708 95.9768H41.4306C42.1646 95.9768 42.8685 96.2672 43.3877 96.7842C43.9068 97.3011 44.1987 98.0023 44.1991 98.7336V99.2282C44.1993 99.5906 44.1278 99.9494 43.9888 100.284C43.8497 100.619 43.6458 100.923 43.3887 101.18C43.1316 101.436 42.8264 101.639 42.4904 101.778C42.1544 101.917 41.7943 101.988 41.4306 101.988H25.1708ZM24.8242 89.9627C23.2184 89.9627 21.6783 89.3271 20.5429 88.1958C19.4074 87.0646 18.7695 85.5302 18.7695 83.9304V75.8366C11.9887 72.5602 6.52383 67.0893 3.26805 60.3178C0.0122723 53.5464 -0.841882 45.8749 0.845185 38.5572C2.53225 31.2395 6.66077 24.7082 12.556 20.0309C18.4512 15.3536 25.7645 12.8069 33.3007 12.8069C40.8368 12.8069 48.1501 15.3536 54.0454 20.0309C59.9406 24.7082 64.0691 31.2395 65.7562 38.5572C67.4432 45.8749 66.5891 53.5464 63.3333 60.3178C60.0775 67.0893 54.6127 72.5602 47.8319 75.8366V83.9319C47.8319 85.5317 47.194 87.0661 46.0585 88.1973C44.923 89.3286 43.383 89.9642 41.7772 89.9642L24.8242 89.9627Z" fill="#0072C6"/>
</svg>
